<?xml version="1.0" standalone="no"?>
<!DOCTYPE svg PUBLIC "-//W3C//DTD SVG 20010904//EN"
 "http://www.w3.org/TR/2001/REC-SVG-20010904/DTD/svg10.dtd">
<svg version="1.0" xmlns="http://www.w3.org/2000/svg"
 width="200.000000pt" height="200.000000pt" viewBox="0 0 200.000000 200.000000"
 preserveAspectRatio="xMidYMid meet">
<metadata>
Created by potrace 1.11, written by Peter Selinger 2001-2013
</metadata>
<g transform="translate(0.000000,200.000000) scale(0.100000,-0.100000)"
fill="#000000" stroke="none">
<path d="M959 1549 c-11 -11 -27 -36 -35 -54 -12 -29 -22 -36 -71 -50 -180
-52 -303 -170 -303 -291 0 -50 26 -80 62 -68 33 10 46 32 53 89 9 60 24 92 62
126 36 33 67 51 122 73 l44 17 -6 -103 c-4 -57 -9 -159 -12 -228 -8 -178 -10
-188 -38 -183 -55 11 -61 -65 -7 -89 24 -10 30 -19 30 -43 -1 -61 -19 -153
-39 -198 -24 -53 -27 -99 -8 -116 26 -21 75 -24 102 -7 46 30 68 96 80 241 4
44 9 82 10 83 2 2 25 6 52 8 203 19 350 118 394 266 15 52 12 169 -6 224 -45
134 -186 224 -357 228 -55 1 -58 2 -58 26 -1 70 -30 90 -71 49z m171 -169 c60
-17 132 -80 165 -145 27 -52 30 -68 30 -149 0 -98 -12 -134 -64 -189 -47 -52
-108 -74 -211 -80 l-45 -2 2 210 c1 116 5 222 7 235 2 14 5 51 5 84 l1 59 38
-7 c20 -3 53 -10 72 -16z"/>
</g>
</svg>
