<svg aria-hidden="true" style="position: absolute; width: 0; height: 0; overflow: hidden;" version="1.1" xmlns="http://www.w3.org/2000/svg" xmlns:xlink="http://www.w3.org/1999/xlink">
<defs>
<symbol id="icon-cap" viewBox="0 0 20 20">
<path d="M3.302 12.238c0.464 1.879 1.054 2.701 3.022 3.562 1.969 0.86 2.904 1.8 3.676 1.8s1.648-0.822 3.616-1.684c1.969-0.861 1.443-1.123 1.907-3.002l-5.523 2.686-6.698-3.362zM19.511 7.336l-8.325-4.662c-0.652-0.365-1.72-0.365-2.372 0l-8.326 4.662c-0.652 0.365-0.652 0.963 0 1.328l8.325 4.662c0.652 0.365 1.72 0.365 2.372 0l5.382-3.014-5.836-1.367c-0.225 0.055-0.472 0.086-0.731 0.086-1.052 0-1.904-0.506-1.904-1.131 0-0.627 0.853-1.133 1.904-1.133 0.816 0 1.51 0.307 1.78 0.734l6.182 2.029 1.549-0.867c0.651-0.364 0.651-0.962 0-1.327zM16.967 16.17c-0.065 0.385 1.283 1.018 1.411-0.107 0.579-5.072-0.416-6.531-0.416-6.531l-1.395 0.781c0-0.001 1.183 1.125 0.4 5.857z"></path>
</symbol>
<symbol id="icon-heart" viewBox="0 0 20 20">
<path d="M17.19 4.155c-1.672-1.534-4.383-1.534-6.055 0l-1.135 1.042-1.136-1.042c-1.672-1.534-4.382-1.534-6.054 0-1.881 1.727-1.881 4.52 0 6.246l7.19 6.599 7.19-6.599c1.88-1.726 1.88-4.52 0-6.246z"></path>
</symbol>
<symbol id="icon-mail" viewBox="0 0 20 20">
<path d="M1.574 5.286c0.488 0.262 7.248 3.894 7.5 4.029s0.578 0.199 0.906 0.199c0.328 0 0.654-0.064 0.906-0.199s7.012-3.767 7.5-4.029c0.489-0.263 0.951-1.286 0.054-1.286h-16.919c-0.897 0-0.435 1.023 0.053 1.286zM18.613 7.489c-0.555 0.289-7.387 3.849-7.727 4.027s-0.578 0.199-0.906 0.199-0.566-0.021-0.906-0.199-7.133-3.739-7.688-4.028c-0.39-0.204-0.386 0.035-0.386 0.219s0 7.293 0 7.293c0 0.42 0.566 1 1 1h16c0.434 0 1-0.58 1-1 0 0 0-7.108 0-7.292s0.004-0.423-0.387-0.219z"></path>
</symbol>
<symbol id="icon-pc" viewBox="0 0 20 20">
<path d="M18 1h-16c-1.101 0-2 0.9-2 2v11c0 1.1 0.882 2.178 1.961 2.393l4.372 0.875c0 0-3.763 1.732-1.333 1.732h10c2.43 0-1.334-1.732-1.334-1.732l4.373-0.875c1.078-0.215 1.961-1.293 1.961-2.393v-11c0-1.1-0.9-2-2-2zM18 14h-16v-11h16v11z"></path>
</symbol>
<symbol id="icon-user" viewBox="0 0 20 20">
<path d="M7.725 2.146c-1.016 0.756-1.289 1.953-1.239 2.59 0.064 0.779 0.222 1.793 0.222 1.793s-0.313 0.17-0.313 0.854c0.109 1.717 0.683 0.976 0.801 1.729 0.284 1.814 0.933 1.491 0.933 2.481 0 1.649-0.68 2.42-2.803 3.334-2.13 0.918-4.326 2.073-4.326 4.073v1h18v-1c0-2-2.197-3.155-4.328-4.072-2.123-0.914-2.801-1.684-2.801-3.334 0-0.99 0.647-0.667 0.932-2.481 0.119-0.753 0.692-0.012 0.803-1.729 0-0.684-0.314-0.854-0.314-0.854s0.158-1.014 0.221-1.793c0.065-0.817-0.398-2.561-2.3-3.096-0.333-0.34-0.558-0.881 0.466-1.424-2.24-0.105-2.761 1.067-3.954 1.929z"></path>
</symbol>
<symbol id="icon-bootstrap" viewBox="0 0 32 32">
<path fill="#563d7c" style="fill: var(--color1, #563d7c)" d="M26.667 0h-21.333c-2.943 0.008-5.325 2.391-5.333 5.333v21.333c0 2.933 2.4 5.333 5.333 5.333h21.333c2.933 0 5.333-2.4 5.333-5.333v-21.333c0-2.933-2.4-5.333-5.333-5.333zM23.751 22.473c-0.267 0.643-0.689 1.209-1.231 1.645-0.56 0.453-1.269 0.827-2.143 1.093-0.872 0.271-1.909 0.407-3.111 0.407h-8.576v-18.667h9.069c1.677 0 3.021 0.377 4.027 1.147 1.013 0.773 1.517 1.925 1.517 3.48 0 0.94-0.229 1.747-0.691 2.413-0.459 0.663-1.12 1.181-1.973 1.541v0.061c1.139 0.24 2.020 0.78 2.6 1.62s0.877 1.901 0.877 3.183c0 0.717-0.139 1.4-0.4 2.037zM20.049 17.873c-0.547-0.5-1.315-0.744-2.307-0.744h-5.763v5.824h5.779c0.987 0 1.76-0.256 2.307-0.773 0.547-0.513 0.827-1.245 0.827-2.187-0.009-0.92-0.28-1.632-0.827-2.12zM19.249 14.109c0.528-0.448 0.787-1.089 0.787-1.925 0-0.939-0.233-1.605-0.707-1.987-0.469-0.38-1.147-0.577-2.037-0.577h-5.333v5.151h5.333c0.777 0 1.44-0.227 1.957-0.661z"></path>
</symbol>
<symbol id="icon-css3" viewBox="0 0 32 32">
<path fill="#1572b6" style="fill: var(--color2, #1572b6)" d="M2 0h28l-2.547 28.751-11.484 3.249-11.42-3.251zM24.787 5.884l-17.573-0.004 0.284 3.496 13.5 0.003-0.34 3.621h-8.853l0.32 3.431h8.243l-0.488 4.697-3.88 1.072-3.941-1.080-0.251-2.813h-3.48l0.387 5.14 7.287 2.271 7.164-2.040z"></path>
</symbol>
<symbol id="icon-github" viewBox="0 0 32 32">
<path d="M16 0.396c-8.84 0-16 7.164-16 16 0 7.071 4.584 13.067 10.94 15.18 0.8 0.151 1.093-0.344 1.093-0.769 0-0.38-0.013-1.387-0.020-2.72-4.451 0.965-5.389-2.147-5.389-2.147-0.728-1.847-1.78-2.34-1.78-2.34-1.449-0.992 0.112-0.972 0.112-0.972 1.607 0.112 2.451 1.648 2.451 1.648 1.427 2.447 3.745 1.74 4.66 1.331 0.144-1.035 0.556-1.74 1.013-2.14-3.553-0.4-7.288-1.776-7.288-7.907 0-1.747 0.62-3.173 1.647-4.293-0.18-0.404-0.72-2.031 0.14-4.235 0 0 1.34-0.429 4.4 1.64 1.28-0.356 2.64-0.532 4-0.54 1.36 0.008 2.72 0.184 4 0.54 3.040-2.069 4.38-1.64 4.38-1.64 0.86 2.204 0.32 3.831 0.16 4.235 1.020 1.12 1.64 2.547 1.64 4.293 0 6.147-3.74 7.5-7.3 7.893 0.56 0.48 1.080 1.461 1.080 2.96 0 2.141-0.020 3.861-0.020 4.381 0 0.42 0.28 0.92 1.1 0.76 6.401-2.099 10.981-8.099 10.981-15.159 0-8.836-7.164-16-16-16z"></path>
</symbol>
<symbol id="icon-html5" viewBox="0 0 32 32">
<path fill="#e34f26" style="fill: var(--color3, #e34f26)" d="M2 0h28l-2.547 28.751-11.484 3.249-11.419-3.251zM11.375 13l-0.309-3.624 13.412 0.004 0.307-3.496-17.568-0.004 0.931 10.68h12.168l-0.435 4.568-3.88 1.072-3.94-1.080-0.251-2.813h-3.479l0.44 5.561 7.229 1.933 7.172-1.924 0.992-10.876z"></path>
</symbol>
<symbol id="icon-javascript" viewBox="0 0 32 32">
<path fill="#f7df1e" style="fill: var(--color4, #f7df1e)" d="M0 0h32v32h-32zM29.379 24.368c-0.233-1.46-1.184-2.687-4.004-3.831-0.981-0.46-2.072-0.78-2.396-1.52-0.121-0.44-0.14-0.68-0.061-0.94 0.2-0.861 1.22-1.12 2.020-0.88 0.52 0.16 1 0.56 1.301 1.2 1.379-0.901 1.379-0.901 2.34-1.5-0.36-0.56-0.539-0.801-0.781-1.040-0.84-0.94-1.959-1.42-3.779-1.379l-0.94 0.119c-0.901 0.22-1.76 0.7-2.28 1.34-1.52 1.721-1.081 4.721 0.759 5.961 1.82 1.36 4.481 1.659 4.821 2.94 0.32 1.56-1.16 2.060-2.621 1.88-1.081-0.24-1.68-0.781-2.34-1.781l-2.44 1.401c0.28 0.64 0.6 0.919 1.080 1.479 2.32 2.341 8.12 2.221 9.161-1.339 0.039-0.12 0.32-0.94 0.099-2.2zM17.401 14.708h-2.997c0 2.584-0.012 5.152-0.012 7.74 0 1.643 0.084 3.151-0.184 3.615-0.44 0.919-1.573 0.801-2.088 0.64-0.528-0.261-0.796-0.621-1.107-1.14-0.084-0.14-0.147-0.261-0.169-0.261l-2.433 1.5c0.407 0.84 1 1.563 1.765 2.023 1.14 0.68 2.672 0.9 4.276 0.54 1.044-0.301 1.944-0.921 2.415-1.881 0.68-1.24 0.536-2.76 0.529-4.461 0.016-2.739 0-5.479 0-8.239z"></path>
</symbol>
<symbol id="icon-linkedin" viewBox="0 0 32 32">
<path d="M27.263 27.269h-4.739v-7.425c0-1.771-0.036-4.049-2.469-4.049-2.471 0-2.848 1.927-2.848 3.919v7.556h-4.739v-15.269h4.552v2.081h0.061c0.636-1.2 2.183-2.467 4.493-2.467 4.801 0 5.689 3.16 5.689 7.273zM7.116 9.911c-1.525 0-2.751-1.235-2.751-2.753 0-1.517 1.227-2.751 2.751-2.751 1.52 0 2.752 1.233 2.752 2.751 0 1.519-1.233 2.753-2.752 2.753zM9.492 27.269h-4.752v-15.269h4.752zM29.633 0h-27.272c-1.305 0-2.361 1.032-2.361 2.305v27.389c0 1.275 1.056 2.305 2.361 2.305h27.268c1.304 0 2.371-1.031 2.371-2.305v-27.389c0-1.273-1.067-2.305-2.371-2.305z"></path>
</symbol>
<symbol id="icon-sass" viewBox="0 0 32 32">
<path fill="#c69" style="fill: var(--color6, #c69)" d="M16 0c8.836 0 16 7.164 16 16s-7.164 16-16 16-16-7.164-16-16 7.164-16 16-16zM12.82 21.331c0.233 0.86 0.208 1.664-0.032 2.389l-0.087 0.24c-0.032 0.081-0.069 0.16-0.104 0.235-0.187 0.387-0.435 0.747-0.74 1.080-0.931 1.012-2.229 1.396-2.787 1.073-0.6-0.349-0.301-1.78 0.779-2.92 1.161-1.224 2.827-2.012 2.827-2.012v-0.004zM26.035 6.849c-0.723-2.844-5.436-3.779-9.896-2.193-2.652 0.943-5.525 2.424-7.591 4.356-2.457 2.295-2.848 4.295-2.687 5.131 0.569 2.948 4.609 4.876 6.271 6.307v0.008c-0.489 0.24-4.075 2.039-4.915 3.9-0.9 1.96 0.14 3.361 0.82 3.54 2.1 0.581 4.26-0.48 5.42-2.199 1.12-1.681 1.021-3.841 0.539-4.901 0.661-0.18 1.44-0.26 2.44-0.139 2.801 0.32 3.361 2.080 3.24 2.8-0.12 0.719-0.697 1.139-0.899 1.259-0.2 0.121-0.26 0.16-0.241 0.241 0.020 0.12 0.121 0.12 0.28 0.1 0.22-0.040 1.461-0.6 1.521-1.961 0.060-1.72-1.581-3.639-4.5-3.6-1.2 0.021-1.961 0.121-2.5 0.341-0.040-0.060-0.081-0.1-0.14-0.14-1.8-1.94-5.14-3.3-5-5.88 0.040-0.94 0.38-3.419 6.4-6.419 4.94-2.461 8.881-1.78 9.561-0.28 0.977 2.139-2.101 6.12-7.241 6.699-1.96 0.22-2.98-0.539-3.241-0.82-0.279-0.3-0.319-0.32-0.419-0.259-0.16 0.080-0.060 0.34 0 0.5 0.16 0.4 0.78 1.1 1.861 1.46 0.939 0.3 3.24 0.479 6-0.6 3.099-1.199 5.519-4.54 4.819-7.34z"></path>
</symbol>
<symbol id="icon-star-empty" viewBox="0 0 32 32">
<path d="M32 12.408l-11.056-1.607-4.944-10.018-4.944 10.018-11.056 1.607 8 7.798-1.889 11.011 9.889-5.199 9.889 5.199-1.889-11.011 8-7.798zM16 23.547l-6.983 3.671 1.334-7.776-5.65-5.507 7.808-1.134 3.492-7.075 3.492 7.075 7.807 1.134-5.65 5.507 1.334 7.776-6.983-3.671z"></path>
</symbol>
<symbol id="icon-star-half" viewBox="0 0 32 32">
<path d="M32 12.408l-11.056-1.607-4.944-10.018-4.944 10.018-11.056 1.607 8 7.798-1.889 11.011 9.889-5.199 9.889 5.199-1.889-11.011 8-7.798zM16 23.547l-0.029 0.015 0.029-17.837 3.492 7.075 7.807 1.134-5.65 5.507 1.334 7.776-6.983-3.671z"></path>
</symbol>
<symbol id="icon-star-full" viewBox="0 0 32 32">
<path d="M32 12.408l-11.056-1.607-4.944-10.018-4.944 10.018-11.056 1.607 8 7.798-1.889 11.011 9.889-5.199 9.889 5.199-1.889-11.011 8-7.798z"></path>
</symbol>
</defs>
</svg>
